<?xml version="1.0" encoding="UTF-8"?>
<!DOCTYPE svg PUBLIC "-//W3C//DTD SVG 1.1//EN" "http://www.w3.org/Graphics/SVG/1.1/DTD/svg11.dtd">
<svg version="1.1" xmlns="http://www.w3.org/2000/svg" xmlns:xlink="http://www.w3.org/1999/xlink" x="0" y="0" width="17.143" height="17.143" viewBox="0, 0, 17.143, 17.143">
  <g id="settings" transform="translate(-6, -4.286)">
    <path d="M17.429,12.857 C17.429,14.431 16.145,15.714 14.571,15.714 C12.998,15.714 11.714,14.431 11.714,12.857 C11.714,11.283 12.998,10 14.571,10 C16.145,10 17.429,11.283 17.429,12.857 z M23.143,11.641 C23.143,11.451 23.009,11.272 22.819,11.239 L20.777,10.926 C20.665,10.558 20.509,10.19 20.319,9.833 C20.699,9.308 21.112,8.817 21.491,8.304 C21.547,8.225 21.58,8.147 21.58,8.047 C21.58,7.958 21.558,7.868 21.502,7.801 C21.034,7.143 20.252,6.451 19.661,5.904 C19.583,5.837 19.482,5.792 19.382,5.792 C19.281,5.792 19.181,5.826 19.114,5.893 L17.529,7.087 C17.205,6.92 16.871,6.786 16.525,6.674 L16.212,4.621 C16.19,4.431 16.011,4.286 15.81,4.286 L13.333,4.286 C13.132,4.286 12.975,4.42 12.931,4.598 C12.752,5.268 12.685,5.993 12.607,6.674 C12.261,6.786 11.915,6.931 11.592,7.098 L10.051,5.904 C9.962,5.837 9.862,5.792 9.761,5.792 C9.382,5.792 7.875,7.422 7.607,7.79 C7.551,7.868 7.507,7.946 7.507,8.047 C7.507,8.147 7.551,8.237 7.618,8.315 C8.031,8.817 8.433,9.319 8.813,9.855 C8.634,10.19 8.489,10.525 8.377,10.882 L6.301,11.194 C6.134,11.228 6,11.429 6,11.596 L6,14.074 C6,14.263 6.134,14.442 6.324,14.475 L8.366,14.777 C8.478,15.156 8.634,15.525 8.824,15.882 C8.444,16.406 8.031,16.897 7.652,17.411 C7.596,17.489 7.563,17.567 7.563,17.667 C7.563,17.757 7.585,17.846 7.641,17.924 C8.109,18.571 8.891,19.263 9.482,19.799 C9.56,19.877 9.661,19.922 9.761,19.922 C9.862,19.922 9.962,19.888 10.04,19.821 L11.614,18.627 C11.938,18.795 12.272,18.929 12.618,19.04 L12.931,21.094 C12.953,21.283 13.132,21.429 13.333,21.429 L15.81,21.429 C16.011,21.429 16.167,21.295 16.212,21.116 C16.391,20.446 16.458,19.721 16.536,19.04 C16.882,18.929 17.228,18.783 17.551,18.616 L19.092,19.821 C19.181,19.877 19.281,19.922 19.382,19.922 C19.761,19.922 21.268,18.281 21.536,17.924 C21.603,17.846 21.636,17.768 21.636,17.667 C21.636,17.567 21.592,17.467 21.525,17.388 C21.112,16.886 20.71,16.395 20.33,15.848 C20.509,15.525 20.643,15.19 20.766,14.833 L22.83,14.52 C23.009,14.487 23.143,14.286 23.143,14.118 z" fill="#336699"/>
  </g>
</svg>
